<svg width="82" height="82" viewBox="0 0 82 82" fill="none" xmlns="http://www.w3.org/2000/svg">
<circle cx="41" cy="41" r="41" fill="#F1F1F1" fill-opacity="0.3"/>
<circle cx="40.5" cy="41.5" r="30.5" fill="#F1F1F1" fill-opacity="0.3"/>
<circle cx="40.5" cy="41.5" r="30.5" fill="white"/>
<path d="M41.0039 26.2812C34.9159 26.2812 29.6917 29.986 27.4539 35.265C27.4376 35.2926 27.4234 35.3215 27.4114 35.3512C27.3578 35.4804 27.3148 35.6114 27.2652 35.7413C27.198 35.9166 27.127 36.0902 27.0664 36.2688C26.9557 36.5947 26.856 36.9226 26.7689 37.2512C26.768 37.2546 26.7672 37.2579 26.7664 37.2612C26.7612 37.2811 26.754 37.3001 26.7489 37.32C26.7065 37.4844 26.7312 37.6589 26.8175 37.8052C26.9037 37.9514 27.0445 38.0574 27.209 38.0998C27.3734 38.1423 27.5479 38.1176 27.6941 38.0314C27.8404 37.9452 27.9464 37.8044 27.9889 37.64C27.9913 37.6307 27.994 37.6217 27.9964 37.6125C28.0787 37.2955 28.1757 36.985 28.2802 36.6775C28.3354 36.5152 28.3996 36.3539 28.4614 36.1925C30.3957 31.149 35.2715 27.5612 41.0039 27.5612C48.4334 27.5612 54.4427 33.5705 54.4427 41C54.4415 41.0848 54.4571 41.169 54.4887 41.2477C54.5204 41.3264 54.5673 41.398 54.6269 41.4584C54.6864 41.5188 54.7574 41.5668 54.8356 41.5995C54.9139 41.6323 54.9978 41.6491 55.0827 41.6491C55.1675 41.6491 55.2514 41.6323 55.3297 41.5995C55.4079 41.5668 55.4789 41.5188 55.5384 41.4584C55.598 41.398 55.6449 41.3264 55.6766 41.2477C55.7082 41.169 55.7239 41.0848 55.7227 41C55.7227 32.8787 49.1252 26.2812 41.0039 26.2812ZM26.7339 40.4187L26.3214 40.8175L26.2852 41.04L26.2952 41.6425L26.2964 41.6613L26.2977 41.6788L26.3564 42.4775L26.3577 42.4963L26.3602 42.5138L26.4652 43.3062L26.4677 43.3237L26.4714 43.3412L26.6189 44.125L26.6227 44.1425L26.6277 44.16L26.7852 44.795L27.1589 45.2312L27.7314 45.1925L28.0427 44.7113L28.0277 44.4862L27.8727 43.8638L27.7339 43.1388L27.7327 43.1275L27.6327 42.3662L27.5752 41.595L27.5739 41.5837L27.5652 41.0187L27.3002 40.51L26.7339 40.4187ZM28.8739 47.3713L28.3339 47.5675L28.1677 48.1162L28.2452 48.3275L28.4727 48.7212L28.4827 48.7375L28.4914 48.7525L28.9289 49.4175L28.9389 49.4325L28.9502 49.4475L29.4252 50.0887L29.4352 50.1038L29.4477 50.1175L29.9589 50.7325L29.9714 50.7463L29.9839 50.76L30.5327 51.3475L31.0702 51.5462L31.5514 51.235L31.5902 50.6625L31.4677 50.4737L30.9264 49.895L30.9189 49.8862L30.4414 49.3112L29.9989 48.715L29.5814 48.0812L29.5777 48.0737L29.3527 47.6862L28.8739 47.3713ZM50.8489 50.415C50.6829 50.4183 50.5247 50.486 50.4077 50.6038C50.2618 50.7465 50.1134 50.8857 49.9614 51.0212C49.8952 51.0761 49.8408 51.1438 49.8013 51.2202C49.7619 51.2966 49.7382 51.3801 49.7318 51.4658C49.7253 51.5516 49.7362 51.6377 49.7638 51.7191C49.7913 51.8006 49.835 51.8756 49.8922 51.9398C49.9494 52.004 50.019 52.056 50.0967 52.0927C50.1745 52.1294 50.2588 52.1501 50.3447 52.1535C50.4306 52.1569 50.5163 52.1429 50.5967 52.1125C50.6771 52.082 50.7506 52.0357 50.8127 51.9762C50.9794 51.8276 51.1426 51.6755 51.3027 51.5187C51.3962 51.4298 51.4606 51.3147 51.4875 51.1885C51.5145 51.0623 51.5026 50.9309 51.4536 50.8116C51.4045 50.6922 51.3205 50.5905 51.2126 50.5197C51.1047 50.449 50.9779 50.4124 50.8489 50.415ZM33.8377 52.5012C33.6996 52.5091 33.5677 52.5614 33.4619 52.6504C33.3561 52.7394 33.2819 52.8603 33.2505 52.995C33.2191 53.1297 33.2322 53.271 33.2878 53.3976C33.3434 53.5242 33.4385 53.6294 33.5589 53.6975C34.1289 54.0307 34.7282 54.3306 35.3552 54.5912C35.3667 54.5958 35.3784 54.5999 35.3902 54.6038C35.586 54.6849 35.7827 54.7622 35.9802 54.8337C36.0596 54.864 36.1442 54.8782 36.2292 54.8753C36.3141 54.8725 36.3976 54.8529 36.4749 54.8174C36.5521 54.782 36.6215 54.7315 36.6791 54.669C36.7366 54.6065 36.7811 54.5331 36.81 54.4532C36.8389 54.3732 36.8516 54.2884 36.8473 54.2035C36.843 54.1186 36.8219 54.0354 36.7852 53.9588C36.7484 53.8822 36.6968 53.8136 36.6332 53.7572C36.5697 53.7007 36.4956 53.6575 36.4152 53.63C36.225 53.5611 36.0358 53.4873 35.8477 53.4087C35.8472 53.4087 35.8468 53.4087 35.8464 53.4087C35.2728 53.1702 34.7257 52.8968 34.2052 52.5925C34.0947 52.5257 33.9666 52.4939 33.8377 52.5012ZM46.9052 53.1262L46.6864 53.1775L46.0289 53.4625L46.0202 53.4662L45.4427 53.6737L45.0477 54.09L45.1439 54.655L45.6552 54.9163L45.8764 54.8787L46.4627 54.6675L46.4814 54.66L46.5002 54.6525L47.1939 54.3525L47.5627 53.9125L47.4314 53.355L46.9052 53.1262ZM41.5777 54.42L41.2589 54.4387L40.2639 54.4212V54.435L39.7602 54.6325L39.6089 55.185L39.9614 55.6375L40.1789 55.6975L40.1964 55.6987L40.2202 55.7013H40.2439L41.2739 55.7188H41.2977L41.3214 55.7175L41.6514 55.6987L42.1489 55.4125L42.2177 54.8438L41.8027 54.4475L41.5777 54.42Z" fill="black"/>
<path d="M50.8507 50.415C50.6847 50.4183 50.5265 50.486 50.4095 50.6038C50.2636 50.7465 50.1152 50.8857 49.9632 51.0212C49.8971 51.0761 49.8426 51.1438 49.8032 51.2202C49.7637 51.2966 49.7401 51.3801 49.7336 51.4658C49.7271 51.5516 49.738 51.6377 49.7656 51.7191C49.7932 51.8006 49.8369 51.8756 49.8941 51.9398C49.9513 52.004 50.0208 52.056 50.0986 52.0927C50.1763 52.1294 50.2606 52.1501 50.3465 52.1535C50.4324 52.1569 50.5182 52.1429 50.5985 52.1125C50.6789 52.082 50.7524 52.0357 50.8145 51.9762C50.9812 51.8276 51.1444 51.6755 51.3045 51.5187C51.398 51.4298 51.4624 51.3147 51.4894 51.1885C51.5163 51.0623 51.5045 50.9309 51.4554 50.8116C51.4063 50.6922 51.3223 50.5905 51.2144 50.5197C51.1065 50.449 50.9798 50.4124 50.8507 50.415Z" fill="#BFAA86"/>
<g clip-path="url(#clip0)">
<path d="M38.0391 35.8702V45.4665L38.5931 45.1149L45.5456 40.6684L38.0391 35.8702ZM38.7591 37.1837L44.2125 40.6684L38.7591 44.1502V37.1837Z" fill="#BFAA86"/>
</g>
<defs>
<clipPath id="clip0">
<rect width="11.52" height="11.52" fill="white" transform="translate(35.8789 35.2402)"/>
</clipPath>
</defs>
</svg>
