<svg width="64" height="64" viewBox="0 0 64 64" fill="none" xmlns="http://www.w3.org/2000/svg">
<path d="M31 2C15.0117 2 2 15.0078 2 31C2 46.9922 15.0117 60 31 60C46.9883 60 60 46.9922 60 31C60 15.0078 46.9883 2 31 2ZM31 4C45.8867 4 58 16.1133 58 31C58 45.8867 45.8867 58 31 58C16.1133 58 4 45.8867 4 31C4 16.1133 16.1133 4 31 4ZM30.5625 8.00781C24.6719 8.125 18.9609 10.5117 14.7344 14.7344C5.76953 23.7031 5.76953 38.293 14.7344 47.2617C14.9297 47.457 15.1875 47.5547 15.4414 47.5547C15.6992 47.5547 15.957 47.457 16.1523 47.2617C16.543 46.8711 16.543 46.2383 16.1523 45.8477C7.96094 37.6602 7.96484 24.3398 16.1523 16.1523C20.8984 11.4023 27.6992 9.20312 34.3398 10.2656C34.8828 10.3555 35.3984 9.98047 35.4844 9.4375C35.5742 8.89062 35.1992 8.375 34.6562 8.28906C33.293 8.07031 31.9219 7.97656 30.5625 8.00781ZM38.6562 9.38672C38.2695 9.40234 37.9102 9.64844 37.7656 10.0352C37.5703 10.5547 37.832 11.1289 38.3516 11.3242C39.0664 11.5898 39.7695 11.8984 40.4531 12.2383C40.5977 12.3125 40.75 12.3477 40.9023 12.3477C41.2656 12.3477 41.6172 12.1484 41.7969 11.7969C42.043 11.3047 41.8438 10.7031 41.3516 10.4531C40.6094 10.0781 39.832 9.74219 39.0508 9.44922C38.9219 9.40234 38.7891 9.38281 38.6562 9.38672ZM44.4336 12.6758C44.1797 12.707 43.9375 12.832 43.7656 13.0508C43.4258 13.4844 43.5 14.1133 43.9375 14.4531C44.6055 14.9766 45.2461 15.5469 45.8477 16.1523C54.0391 24.3398 54.0391 37.6602 45.8477 45.8477C45.457 46.2422 45.457 46.8711 45.8477 47.2656C46.043 47.457 46.3008 47.5586 46.5586 47.5586C46.8125 47.5586 47.0703 47.457 47.2656 47.2656C56.2305 38.2969 56.2305 23.7031 47.2656 14.7344C46.6055 14.0781 45.9023 13.4531 45.1719 12.8789C44.9531 12.7109 44.6836 12.6445 44.4336 12.6758ZM28 18C26.8984 18 26 18.8984 26 20V32H24C23.4453 32 23 32.4492 23 33C23 33.5508 23.4453 34 24 34H26V36H24C23.4453 36 23 36.4492 23 37C23 37.5508 23.4453 38 24 38H26V43C26 43.5508 26.4453 44 27 44C27.5547 44 28 43.5508 28 43V34H34C37.3086 34 40 31.3086 40 28V24C40 20.6914 37.3086 18 34 18H28ZM28 20H34C36.207 20 38 21.793 38 24V28C38 30.207 36.207 32 34 32H28V20ZM30 36C29.4453 36 29 36.4492 29 37C29 37.5508 29.4453 38 30 38H36C36.5547 38 37 37.5508 37 37C37 36.4492 36.5547 36 36 36H30ZM21.375 48.3945C20.9844 48.3477 20.5898 48.5273 20.3867 48.8867L19.3867 50.6211C19.1094 51.0977 19.2734 51.707 19.75 51.9844C19.9062 52.0742 20.0781 52.1211 20.25 52.1211C20.5938 52.1211 20.9297 51.9414 21.1133 51.6211L22.1133 49.8867C22.3906 49.4102 22.2305 48.7969 21.75 48.5195C21.6289 48.4531 21.5039 48.4102 21.375 48.3945ZM40.625 48.3945C40.4961 48.4102 40.3672 48.4531 40.25 48.5195C39.7695 48.7969 39.6094 49.4102 39.8867 49.8906L40.8867 51.6211C41.0703 51.9414 41.4062 52.1211 41.75 52.1211C41.9219 52.1211 42.0938 52.0781 42.25 51.9844C42.7305 51.7109 42.8906 51.0977 42.6133 50.6211L41.6133 48.8906C41.4062 48.5312 41.0117 48.3477 40.625 48.3945ZM36.1875 50.3438C36.0586 50.3242 35.9219 50.332 35.7852 50.3711C35.2539 50.5117 34.9375 51.0625 35.0781 51.5938L35.5977 53.5273C35.7188 53.9727 36.1211 54.2695 36.5625 54.2695C36.6523 54.2695 36.7383 54.2578 36.8242 54.2344C37.3555 54.0898 37.6758 53.543 37.5312 53.0117L37.0156 51.0781C36.9062 50.6758 36.5703 50.3984 36.1875 50.3438ZM25.8164 50.3438C25.4297 50.3984 25.0938 50.6758 24.9844 51.0781L24.4688 53.0117C24.3242 53.543 24.6445 54.0898 25.1758 54.2344C25.2617 54.2578 25.3477 54.2695 25.4375 54.2695C25.875 54.2695 26.2812 53.9727 26.4023 53.5273L26.9219 51.5938C27.0625 51.0625 26.7461 50.5117 26.2148 50.3711C26.0781 50.332 25.9453 50.3281 25.8164 50.3438ZM31 51C30.4453 51 30 51.4492 30 52V54C30 54.5508 30.4453 55 31 55C31.5547 55 32 54.5508 32 54V52C32 51.4492 31.5547 51 31 51Z" fill="black"/>
<path d="M27.9983 18C26.8967 18 25.9983 18.8984 25.9983 20V32H23.9983C23.4436 32 22.9983 32.4492 22.9983 33C22.9983 33.5508 23.4436 34 23.9983 34H25.9983V36H23.9983C23.4436 36 22.9983 36.4492 22.9983 37C22.9983 37.5508 23.4436 38 23.9983 38H25.9983V43C25.9983 43.5508 26.4436 44 26.9983 44C27.553 44 27.9983 43.5508 27.9983 43V34H33.9983C37.3069 34 39.9983 31.3086 39.9983 28V24C39.9983 20.6914 37.3069 18 33.9983 18H27.9983ZM27.9983 20H33.9983C36.2053 20 37.9983 21.793 37.9983 24V28C37.9983 30.207 36.2053 32 33.9983 32H27.9983V20ZM29.9983 36C29.4436 36 28.9983 36.4492 28.9983 37C28.9983 37.5508 29.4436 38 29.9983 38H35.9983C36.553 38 36.9983 37.5508 36.9983 37C36.9983 36.4492 36.553 36 35.9983 36H29.9983ZM21.3733 48.3945C20.9827 48.3477 20.5881 48.5273 20.385 48.8867L19.385 50.6211C19.1077 51.0977 19.2717 51.707 19.7483 51.9844C19.9045 52.0742 20.0764 52.1211 20.2483 52.1211C20.592 52.1211 20.928 51.9414 21.1116 51.6211L22.1116 49.8867C22.3889 49.4102 22.2287 48.7969 21.7483 48.5195C21.6272 48.4531 21.5022 48.4102 21.3733 48.3945ZM40.6233 48.3945C40.4944 48.4102 40.3655 48.4531 40.2483 48.5195C39.7678 48.7969 39.6077 49.4102 39.885 49.8906L40.885 51.6211C41.0686 51.9414 41.4045 52.1211 41.7483 52.1211C41.9202 52.1211 42.092 52.0781 42.2483 51.9844C42.7287 51.7109 42.8889 51.0977 42.6116 50.6211L41.6116 48.8906C41.4045 48.5312 41.01 48.3477 40.6233 48.3945ZM36.1858 50.3438C36.0569 50.3242 35.9202 50.332 35.7834 50.3711C35.2522 50.5117 34.9358 51.0625 35.0764 51.5938L35.5959 53.5273C35.717 53.9727 36.1194 54.2695 36.5608 54.2695C36.6506 54.2695 36.7366 54.2578 36.8225 54.2344C37.3537 54.0898 37.6741 53.543 37.5295 53.0117L37.0139 51.0781C36.9045 50.6758 36.5686 50.3984 36.1858 50.3438ZM25.8147 50.3438C25.428 50.3984 25.092 50.6758 24.9827 51.0781L24.467 53.0117C24.3225 53.543 24.6428 54.0898 25.1741 54.2344C25.26 54.2578 25.3459 54.2695 25.4358 54.2695C25.8733 54.2695 26.2795 53.9727 26.4006 53.5273L26.9202 51.5938C27.0608 51.0625 26.7444 50.5117 26.2131 50.3711C26.0764 50.332 25.9436 50.3281 25.8147 50.3438ZM30.9983 51C30.4436 51 29.9983 51.4492 29.9983 52V54C29.9983 54.5508 30.4436 55 30.9983 55C31.553 55 31.9983 54.5508 31.9983 54V52C31.9983 51.4492 31.553 51 30.9983 51Z" fill="#BD9457"/>
</svg>
