<svg width="14" height="10" viewBox="0 0 14 10" fill="none" xmlns="http://www.w3.org/2000/svg">
<path d="M9.60938 4.03788L2.39063 4.03788L4.71094 1.37288C4.99219 1.04985 4.99219 0.538385 4.71094 0.242273C4.42969 -0.0807571 3.98438 -0.0807572 3.72656 0.242273L0.210939 4.28016C0.0703139 4.44167 1.33683e-06 4.65702 1.32249e-06 4.84546C1.3061e-06 5.06081 0.0703138 5.24925 0.210939 5.41076L3.72656 9.44864C3.86719 9.61016 4.05469 9.69092 4.21875 9.69092C4.38281 9.69092 4.57031 9.61016 4.71094 9.44864C4.99219 9.12561 4.99219 8.61415 4.71094 8.31804L2.39063 5.65303L9.60938 5.65304C10.0078 5.65304 10.3125 5.30309 10.3125 4.84546C10.3125 4.38783 10.0078 4.03788 9.60938 4.03788ZM13.125 5.65304C13.3115 5.65304 13.4903 5.56795 13.6222 5.4165C13.754 5.26505 13.8281 5.05964 13.8281 4.84546C13.8281 4.63128 13.754 4.42587 13.6222 4.27442C13.4903 4.12297 13.3115 4.03788 13.125 4.03788C12.9385 4.03788 12.7597 4.12297 12.6278 4.27442C12.496 4.42587 12.4219 4.63128 12.4219 4.84546C12.4219 5.05964 12.496 5.26505 12.6278 5.4165C12.7597 5.56795 12.9385 5.65304 13.125 5.65304Z" fill="black"/>
</svg>
