<svg width="14" height="10" viewBox="0 0 14 10" fill="none" xmlns="http://www.w3.org/2000/svg">
<path d="M4.21875 5.65304L11.4375 5.65304L9.11719 8.31804C8.83594 8.64107 8.83594 9.15253 9.11719 9.44864C9.39844 9.77167 9.84375 9.77167 10.1016 9.44864L13.6172 5.41076C13.7578 5.24925 13.8281 5.03389 13.8281 4.84546C13.8281 4.63011 13.7578 4.44167 13.6172 4.28016L10.1016 0.242273C9.96094 0.0807581 9.77344 0 9.60938 0C9.44531 0 9.25781 0.0807581 9.11719 0.242273C8.83594 0.565304 8.83594 1.07677 9.11719 1.37288L11.4375 4.03788L4.21875 4.03788C3.82031 4.03788 3.51563 4.38783 3.51563 4.84546C3.51563 5.30309 3.82031 5.65304 4.21875 5.65304ZM0.703125 4.03788C0.516645 4.03788 0.337802 4.12297 0.205941 4.27442C0.0740794 4.42587 0 4.63128 0 4.84546C0 5.05964 0.0740794 5.26505 0.205941 5.4165C0.337802 5.56795 0.516645 5.65304 0.703125 5.65304C0.889605 5.65304 1.06845 5.56795 1.20031 5.4165C1.33217 5.26505 1.40625 5.05964 1.40625 4.84546C1.40625 4.63128 1.33217 4.42587 1.20031 4.27442C1.06845 4.12297 0.889605 4.03788 0.703125 4.03788V4.03788Z" fill="black"/>
</svg>
