<svg width="24" height="24" viewBox="0 0 24 24" fill="none" xmlns="http://www.w3.org/2000/svg">
<circle cx="12" cy="12" r="12" fill="#BFAA86"/>
<path d="M11.314 13.348C11.028 13.036 10.885 12.6547 10.885 12.204C10.885 11.8573 10.9847 11.5453 11.184 11.268C11.3833 10.9907 11.6 10.7827 11.834 10.644C12.068 10.5053 12.2847 10.3407 12.484 10.15C12.6833 9.95933 12.783 9.76867 12.783 9.578C12.783 9.36133 12.6963 9.18367 12.523 9.045C12.3583 8.90633 12.107 8.837 11.769 8.837C11.1537 8.837 10.6207 9.10567 10.17 9.643L9.117 8.46C9.83633 7.61933 10.7853 7.199 11.964 7.199C12.796 7.199 13.4547 7.38967 13.94 7.771C14.4253 8.14367 14.668 8.63767 14.668 9.253C14.668 9.59967 14.5943 9.91167 14.447 10.189C14.2997 10.4663 14.1177 10.6917 13.901 10.865C13.693 11.0383 13.4807 11.1987 13.264 11.346C13.0473 11.4933 12.8653 11.6537 12.718 11.827C12.5707 12.0003 12.497 12.1867 12.497 12.386C12.497 12.6113 12.575 12.7933 12.731 12.932L11.314 13.348ZM12.679 15.831C12.471 16.039 12.224 16.143 11.938 16.143C11.652 16.143 11.405 16.039 11.197 15.831C10.989 15.623 10.885 15.376 10.885 15.09C10.885 14.804 10.989 14.557 11.197 14.349C11.405 14.141 11.652 14.037 11.938 14.037C12.224 14.037 12.471 14.141 12.679 14.349C12.887 14.557 12.991 14.804 12.991 15.09C12.991 15.376 12.887 15.623 12.679 15.831Z" fill="white"/>
</svg>
